<svg width="48" height="48" fill="none" xmlns="http://www.w3.org/2000/svg"><path fill-rule="evenodd" clip-rule="evenodd" d="M24 8C15.163 8 8 15.163 8 24s7.163 16 16 16 16-7.163 16-16S32.837 8 24 8zm8.36 14.273a8.528 8.528 0 01-.498 5.032 8.594 8.594 0 01-3.09 3.749 8.623 8.623 0 01-1.45.785 8.568 8.568 0 01-6.644 0 8.631 8.631 0 01-1.45-.786 8.6 8.6 0 01-3.09-3.749 8.488 8.488 0 01-.671-3.316 8.477 8.477 0 011.458-4.765 8.605 8.605 0 012.303-2.3 8.45 8.45 0 013.054-1.283 8.593 8.593 0 015.04.496 8.56 8.56 0 013.753 3.087 8.446 8.446 0 011.285 3.05z" fill="#D25CF7"/><path fill-rule="evenodd" clip-rule="evenodd" d="M28.812 18.528v-.001A7.258 7.258 0 0024 16.712c-.593 0-1.167.071-1.718.204l.012.015c.173.231 1.5 2.007 2.713 4.23 2.727-1.021 3.77-2.582 3.805-2.633zm.815.838c-.028.04-1.2 1.713-4.06 2.879a22.815 22.815 0 01.642 1.432c2.456-.309 4.876.195 5.067.235l.009.001a7.232 7.232 0 00-1.658-4.547zm-2.973 5.46c.955 2.622 1.344 4.759 1.418 5.197a7.279 7.279 0 003.123-4.881c-.15-.049-2.19-.693-4.541-.317zm-1.366.336c1.025 2.662 1.449 4.89 1.557 5.526a7.259 7.259 0 01-2.845.577c-1.69 0-3.242-.58-4.48-1.54.016-.034 1.42-3.05 5.72-4.547a.644.644 0 01.03-.01l.018-.006zM24.2 22.72c.209.409.408.823.591 1.237a7.08 7.08 0 00-.287.087c-3.933 1.27-5.927 4.803-5.925 4.807a7.24 7.24 0 01-1.867-4.863c0-.054.002-.107.004-.16l.002-.072c.13.005 3.73.086 7.482-1.036zm-.604-1.12a43.826 43.826 0 00-2.706-4.194 7.288 7.288 0 00-4.022 5.082h.007c.25.002 3.26.03 6.721-.889z" fill="#D25CF7"/></svg>