<svg width="48" height="48" fill="none" xmlns="http://www.w3.org/2000/svg"><path d="M24.029 8.12c-8.82 0-15.97 7.272-15.97 16.243 0 7.177 4.576 13.266 10.921 15.413.798.15 1.091-.352 1.091-.781 0-.387-.015-1.667-.021-3.024-4.443.982-5.38-1.917-5.38-1.917-.727-1.877-1.774-2.376-1.774-2.376-1.45-1.009.11-.988.11-.988 1.603.114 2.447 1.674 2.447 1.674 1.425 2.483 3.736 1.765 4.648 1.35.143-1.05.557-1.766 1.014-2.172-3.548-.41-7.277-1.803-7.277-8.027 0-1.774.624-3.223 1.646-4.36-.166-.41-.713-2.061.155-4.299 0 0 1.34-.436 4.393 1.665 1.273-.36 2.64-.54 3.997-.546 1.357.006 2.724.186 4 .546 3.049-2.101 4.388-1.665 4.388-1.665.87 2.238.323 3.89.157 4.299 1.024 1.137 1.643 2.586 1.643 4.36 0 6.239-3.736 7.612-7.292 8.014.573.504 1.083 1.493 1.083 3.008 0 2.174-.018 3.923-.018 4.458 0 .432.287.939 1.097.78 6.342-2.151 10.912-8.238 10.912-15.412 0-8.97-7.15-16.243-15.97-16.243z" fill="#D25CF7"/><path d="M14.107 31.442c-.035.08-.16.105-.273.05-.116-.054-.181-.164-.144-.245.035-.083.16-.106.275-.05.117.053.183.164.142.245zM14.754 32.175c-.076.072-.225.039-.326-.075-.104-.113-.124-.264-.047-.337.079-.072.223-.038.328.075.104.114.125.265.045.337zM15.384 33.111c-.098.07-.258.004-.357-.14-.098-.145-.098-.318.002-.387.1-.07.257-.007.357.136.098.147.098.32-.002.391zM16.247 34.015c-.088.098-.274.072-.41-.062-.14-.131-.18-.317-.091-.415.088-.099.276-.071.413.062.139.13.181.318.088.415zM17.437 34.54c-.039.127-.219.185-.4.13-.18-.055-.298-.204-.262-.333.038-.128.218-.188.4-.13.18.055.3.203.262.333zM18.744 34.637c.004.134-.15.245-.34.247-.19.005-.345-.104-.347-.236 0-.135.15-.245.341-.248.19-.004.346.104.346.237zM19.96 34.426c.023.131-.11.265-.298.3-.185.035-.357-.045-.38-.175-.023-.134.11-.268.296-.303.189-.033.358.045.382.178z" fill="#D25CF7"/></svg>