<svg width="48" height="48" fill="none" xmlns="http://www.w3.org/2000/svg"><path fill-rule="evenodd" clip-rule="evenodd" d="M24 8C15.163 8 8 15.163 8 24s7.163 16 16 16 16-7.163 16-16S32.837 8 24 8zm-8.319 13.252h3.626v10.894h-3.626V21.252zm3.865-3.37C19.522 16.814 18.759 16 17.518 16c-1.24 0-2.051.814-2.051 1.882 0 1.046.787 1.883 2.004 1.883h.023c1.265 0 2.052-.837 2.052-1.883zm8.663 3.114c2.386 0 4.175 1.558 4.175 4.904v6.246h-3.626v-5.828c0-1.464-.525-2.463-1.838-2.463-1.001 0-1.598.673-1.86 1.324-.096.233-.12.558-.12.883v6.085h-3.626s.048-9.872 0-10.895h3.627v1.543c.48-.742 1.343-1.799 3.268-1.799z" fill="#D25CF7"/></svg>