<svg width="48" height="48" fill="none" xmlns="http://www.w3.org/2000/svg"><path fill-rule="evenodd" clip-rule="evenodd" d="M24 40c8.837 0 16-7.163 16-16S32.837 8 24 8 8 15.163 8 24s7.163 16 16 16zm-8.635-22a.833.833 0 01.271.702v9.502c.059.342-.05.692-.29.943l-2.259 2.739v.361h6.403v-.361l-2.258-2.74a1.133 1.133 0 01-.311-.942v-8.218l5.62 12.261h.653l4.827-12.26v9.772c0 .26 0 .31-.17.481l-1.737 1.686v.361h8.43v-.361l-1.676-1.645a.502.502 0 01-.19-.482v-12.09a.502.502 0 01.19-.482l1.717-1.645v-.362h-5.942l-4.235 10.565L19.59 15.22h-6.233v.362L15.365 18z" fill="#D25CF7"/></svg>