<svg width="48" height="48" fill="none" xmlns="http://www.w3.org/2000/svg"><path fill-rule="evenodd" clip-rule="evenodd" d="M24 8C15.163 8 8 15.163 8 24s7.163 16 16 16 16-7.163 16-16S32.837 8 24 8zm6.668 10.5a2.167 2.167 0 011.509 1.549c.356 1.366.356 4.218.356 4.218s0 2.85-.356 4.218a2.167 2.167 0 01-1.51 1.549C29.338 30.4 24 30.4 24 30.4s-5.337 0-6.668-.366a2.167 2.167 0 01-1.509-1.55c-.356-1.366-.356-4.217-.356-4.217s0-2.852.356-4.218a2.167 2.167 0 011.51-1.55c1.33-.366 6.667-.366 6.667-.366s5.337 0 6.668.367z" fill="#D25CF7"/><path d="M22.4 27.2v-5.333l4.267 2.666L22.4 27.2z" fill="#D25CF7"/></svg>